<?xml version="1.0" encoding="UTF-8" standalone="no"?>
<!-- Created with Inkscape (http://www.inkscape.org/) -->
<svg
   xmlns:svg="http://www.w3.org/2000/svg"
   xmlns="http://www.w3.org/2000/svg"
   version="1.0"
   width="600"
   height="600"
   id="svg2">
  <defs
     id="shapes_n_styles">
    <marker
       refX="0"
       refY="0"
       orient="auto"
       style="overflow:visible"
       id="Arrow1Mend">
      <path
         d="M 0,0 L 5,-5 L -12.5,0 L 5,5 L 0,0 z "
         transform="scale(-0.4,-0.4)"
         style="fill-rule:evenodd;stroke:#000000;stroke-width:1pt;marker-start:none"
         id="path6" />
    </marker>
    <style
       type="text/css"
       id="style8" />
  </defs>
  <circle
     cx="300"
     cy="300"
     r="200"
     style="fill:#e0e0e0;stroke:#000000;stroke-width:1"
     id="radius200" />
  <path
     d="M 360.29841,196.27894 C 308.14678,166.16789 241.4565,179.17415 204.79635,226.94968 C 168.13619,274.7252 172.56317,342.27266 215.14525,384.85475 C 257.72734,427.43683 325.2748,431.86381 373.05032,395.20365 C 420.82585,358.5435 434.03105,292.15163 403.92,240 L 395.26,245 C 422.8618,292.80566 410.75703,353.66487 366.9628,387.27002 C 323.16857,420.87516 261.25006,416.81709 222.21648,377.78352 C 183.18291,338.74994 179.12484,276.83143 212.72998,233.0372 C 246.33513,189.24297 307.54248,177.28741 355.34814,204.8892 L 360.29841,196.27894 z "
     style="fill:#ff8080;stroke:#ff0000;stroke-width:1"
     id="track" />
  <path
     d="M 324.95027,256.78947 C 332.55187,261.18047 338.91315,267.396 343.3,275 L 473.2,200 C 455.64842,169.595 431.24809,144.79334 400.84549,127.23761 L 324.95027,256.78947 z "
     style="fill:#8080ff;stroke:#0000ff;stroke-width:1;stroke-opacity:1"
     id="sector" />
  <path
     d="M 360.44761,196.37841 C 378.68841,206.91019 393.38822,221.7592 403.92,240 L 395.26,245 C 385.60587,228.27927 372.06888,214.59307 355.34814,204.93894 L 360.44761,196.37841 z "
     style="fill:#a000a0;stroke:#ff00ff;stroke-width:1"
     id="sectorOfTrack" />
  <path
     d="M 210,455.88457 C 296.09267,505.5902 406.17895,476.09267 455.88457,390 L 447.22432,385 C 400.28011,466.30975 296.30975,494.16852 215,447.22432 L 210,455.88457 z "
     style="fill:#00a000;stroke:#00ff00;stroke-width:1"
     id="cluster" />
  <circle
     cx="300"
     cy="300"
     r="50"
     style="opacity:1;fill:#ffffff;stroke:#000000;stroke-width:1"
     id="radius50" />
  <path
     d="M 300.49974,299.30394 L 343.26446,274.83444 C 337.94763,265.91486 331.89942,260.85789 325.07109,256.63107 L 300.49974,299.30394 z "
     style="opacity:1;fill:#8080ff;fill-opacity:1;stroke:#0000ff;stroke-width:1;stroke-miterlimit:4;stroke-dasharray:1, 1;stroke-dashoffset:0;stroke-opacity:1"
     id="path2208" />
  <circle
     cx="300"
     cy="300"
     r="60"
     style="fill:none;stroke:#000000;stroke-width:1"
     id="radius60" />
  <circle
     cx="300"
     cy="300"
     r="70"
     style="fill:none;stroke:#000000;stroke-width:1"
     id="radius70" />
  <circle
     cx="300"
     cy="300"
     r="80"
     style="fill:none;stroke:#000000;stroke-width:1"
     id="radius80" />
  <circle
     cx="300"
     cy="300"
     r="90"
     style="fill:none;stroke:#000000;stroke-width:1"
     id="radius90" />
  <circle
     cx="300"
     cy="300"
     r="100"
     style="fill:none;stroke:#000000;stroke-width:1"
     id="radius100" />
  <circle
     cx="300"
     cy="300"
     r="110"
     style="fill:none;stroke:#000000;stroke-width:1"
     id="radius110" />
  <circle
     cx="300"
     cy="300"
     r="120"
     style="fill:none;stroke:#000000;stroke-width:1"
     id="radius120" />
  <circle
     cx="300"
     cy="300"
     r="130"
     style="fill:none;stroke:#000000;stroke-width:1"
     id="radius130" />
  <circle
     cx="300"
     cy="300"
     r="140"
     style="fill:none;stroke:#000000;stroke-width:1"
     id="radius140" />
  <circle
     cx="300"
     cy="300"
     r="150"
     style="fill:none;stroke:#000000;stroke-width:1"
     id="radius150" />
  <circle
     cx="300"
     cy="300"
     r="160"
     style="fill:none;stroke:#000000;stroke-width:1"
     id="radius160" />
  <circle
     cx="300"
     cy="300"
     r="170"
     style="fill:none;stroke:#000000;stroke-width:1"
     id="radius170" />
  <circle
     cx="300"
     cy="300"
     r="180"
     style="fill:none;stroke:#000000;stroke-width:1"
     id="radius180" />
  <circle
     cx="300"
     cy="300"
     r="190"
     style="fill:none;stroke:#000000;stroke-width:1"
     id="radius190" />
  <line
     id="0"
     class="simple"
     x1="350"
     y1="300"
     x2="500"
     y2="300"
     style="fill:none;stroke:#000000;stroke-width:1" />
  <line
     id="30"
     class="simple"
     x1="473.20001"
     y1="200"
     x2="343.29999"
     y2="275"
     style="fill:none;stroke:#000000;stroke-width:1" />
  <line
     id="60"
     class="simple"
     x1="400"
     y1="128.8"
     x2="325"
     y2="256.70001"
     style="fill:none;stroke:#000000;stroke-width:1" />
  <line
     id="90"
     class="simple"
     x1="300"
     y1="100"
     x2="300"
     y2="250"
     style="fill:none;stroke:#000000;stroke-width:1" />
  <line
     id="120"
     class="simple"
     x1="200"
     y1="128.8"
     x2="275"
     y2="256.70001"
     style="fill:none;stroke:#000000;stroke-width:1" />
  <line
     id="150"
     class="simple"
     x1="128.8"
     y1="200"
     x2="256.70001"
     y2="275"
     style="fill:none;stroke:#000000;stroke-width:1" />
  <line
     id="180"
     class="simple"
     x1="100"
     y1="300"
     x2="250"
     y2="300"
     style="fill:none;stroke:#000000;stroke-width:1" />
  <line
     id="210"
     class="simple"
     x1="128.8"
     y1="400"
     x2="256.70001"
     y2="325"
     style="fill:none;stroke:#000000;stroke-width:1" />
  <line
     id="240"
     class="simple"
     x1="200"
     y1="473.20001"
     x2="275"
     y2="343.29999"
     style="fill:none;stroke:#000000;stroke-width:1" />
  <line
     id="270"
     class="simple"
     x1="300"
     y1="350"
     x2="300"
     y2="500"
     style="fill:none;stroke:#000000;stroke-width:1" />
  <line
     id="300"
     class="simple"
     x1="400"
     y1="473.20001"
     x2="325"
     y2="343.29999"
     style="fill:none;stroke:#000000;stroke-width:1" />
  <line
     id="330"
     class="simple"
     x1="473.20001"
     y1="400"
     x2="343.29999"
     y2="325"
     style="fill:none;stroke:#000000;stroke-width:1" />
  <path
     d="M 364.70476,58.518543 L 329.76419,188.91853 L 364.70476,58.518543 z "
     style="fill:none;stroke:#000000;stroke-width:1"
     id="arrowA" />
  <text
     x="356.54584"
     y="55.142437"
     style="font-size:32px;font-style:normal;font-family:Bitstream Vera Sans"
     id="text43">A</text>
  <path
     d="M 491.51111,139.3031 L 449.62799,174.02869 L 491.51111,139.3031 z "
     style="fill:none;stroke:#000000;stroke-width:1"
     id="arrowC" />
  <text
     x="492.63647"
     y="143.80457"
     style="font-size:32px;font-style:normal;font-family:Bitstream Vera Sans"
     id="text46">B</text>
  <path
     d="M 460.6969,108.48889 L 373.92058,211.90489 L 460.6969,108.48889 z "
     style="fill:none;stroke:#000000;stroke-width:1"
     id="arrowB" />
  <text
     x="460.6969"
     y="108.48889"
     style="font-size:32px;font-style:normal;font-family:Bitstream Vera Sans"
     id="text49">C</text>
  <path
     d="M 364.70476,541.48146 L 345.29333,469.03702 L 364.70476,541.48146 z "
     style="fill:none;stroke:#000000;stroke-width:1"
     id="arrowD" />
  <text
     x="357.54297"
     y="569.33295"
     style="font-size:32px;font-style:normal;font-family:Bitstream Vera Sans"
     id="text52">D</text>
</svg>
